<?xml version="1.0" encoding="UTF-8" standalone="no"?>
<!-- Created with Inkscape (http://www.inkscape.org/) -->

<svg
   width="800mm"
   height="800mm"
   viewBox="0 0 800 800"
   version="1.1"
   id="svg1"
   inkscape:export-filename="bitmap.svg"
   inkscape:export-xdpi="96"
   inkscape:export-ydpi="96"
   xmlns:inkscape="http://www.inkscape.org/namespaces/inkscape"
   xmlns:sodipodi="http://sodipodi.sourceforge.net/DTD/sodipodi-0.dtd"
   xmlns="http://www.w3.org/2000/svg"
   xmlns:svg="http://www.w3.org/2000/svg">
  <sodipodi:namedview
     id="namedview1"
     pagecolor="#ffffff"
     bordercolor="#000000"
     borderopacity="0.25"
     inkscape:showpageshadow="2"
     inkscape:pageopacity="0.0"
     inkscape:pagecheckerboard="0"
     inkscape:deskcolor="#d1d1d1"
     inkscape:document-units="mm"
     inkscape:zoom="0.34295863"
     inkscape:cx="1395.212"
     inkscape:cy="1648.8869"
     inkscape:window-width="1728"
     inkscape:window-height="1052"
     inkscape:window-x="0"
     inkscape:window-y="65"
     inkscape:window-maximized="0"
     inkscape:current-layer="layer1">
    <inkscape:page
       x="0"
       y="0"
       width="800"
       height="800"
       id="page2"
       margin="0"
       bleed="0" />
  </sodipodi:namedview>
  <defs
     id="defs1">
    <inkscape:path-effect
       effect="simplify"
       id="path-effect14"
       is_visible="true"
       lpeversion="1.3"
       threshold="49.138035"
       steps="35.271676"
       smooth_angles="360"
       helper_size="16.560694"
       simplify_individual_paths="false"
       simplify_just_coalesce="false" />
  </defs>
  <g
     inkscape:label="Layer 1"
     inkscape:groupmode="layer"
     id="layer1">
    <rect
       style="fill:#1c2416;fill-opacity:1;stroke-width:0.0264583;stroke-dasharray:none"
       id="rect1"
       width="760.56647"
       height="728.73413"
       x="19.716766"
       y="35.632935"
       ry="98.197594" />
    <circle
       id="path11"
       style="fill:#8a9573;stroke:#000000;stroke-width:0.264583"
       cx="215.93102"
       cy="172.74481"
       r="0.82176578" />
    <path
       style="fill:#8a9573;fill-opacity:1;stroke-width:1.32292;stroke-dasharray:none;paint-order:fill markers stroke"
       d="m 97.424183,254.96116 c -10.233918,40.88761 19.512257,76.36682 45.500097,105.88431 64.98171,73.80752 108.07876,166.93933 186.91782,228.09305 42.08247,32.64244 108.99833,9.91716 128.91876,-40.12395 10.12225,-25.42757 10.50417,-61.70981 37.6727,-73.70801 21.36443,-9.43499 49.98537,4.93127 67.12094,-14.0103 34.21882,-37.82531 45.66088,-89.3719 55.15888,-137.78859 10.98217,-55.98231 27.88335,-110.59394 38.69555,-166.73527 4.47224,-23.22165 6.72979,-56.817071 -16.39916,-68.385672 -21.49798,-10.752832 -42.68541,6.830265 -57.27718,23.425662 -59.1649,67.28895 -83.91383,155.23981 -122.71688,234.2176 -25.20984,51.31083 -54.98729,108.79244 -109.63727,131.32265 -26.34974,10.86305 -55.29167,-5.96785 -68.76414,-31.05894 -27.78929,-51.75469 -29.35558,-111.15566 -53.46775,-165.36099 -9.30546,-20.91915 -15.4663,-49.11913 -40.04706,-56.67623 -32.708,-10.05574 -72.20233,2.3736 -91.675307,30.90468 z"
       id="path13"
       inkscape:path-effect="#path-effect14"
       inkscape:original-d="m 97.424183,254.96116 c -19.054199,42.93097 31.514447,90.87157 62.185647,126.44415 74.59308,86.51334 174.09325,302.66338 281.90828,194.84837 25.43122,-25.43124 19.90357,-67.39254 44.27674,-91.76571 37.44603,-37.44603 49.27631,2.32685 66.29297,-12.36039 75.09141,-64.81207 68.75276,-225.49887 96.71578,-281.42492 10.27448,-20.54899 22.10189,-86.98683 -8.29144,-103.642754 C 618.55606,75.027691 625.7778,71.149447 574.18083,122.29844 522.58386,173.44743 462.84697,378.73212 402.13385,439.44524 259.21276,582.36635 265.27249,326.79306 234.23261,288.12683 c -31.03988,-38.66623 -7.91964,-51.00479 -35.23854,-62.18564 -27.3189,-11.18086 -87.2856,-3.16393 -101.569887,29.01997 z"
       sodipodi:nodetypes="aassasazszsa"
       transform="translate(21.673425,55.893654)" />
  </g>
</svg>
